<svg width="324" height="108" viewBox="0 0 324 108" fill="none" xmlns="http://www.w3.org/2000/svg">
<rect x="3" y="3" width="318" height="102" rx="51" stroke="#060606" stroke-width="6"/>
<path d="M258.794 34.1623C262.543 34.1623 265.926 34.9979 268.94 36.6721L269.498 36.9875C272.249 38.6061 274.428 40.8466 276.032 43.7062L276.35 44.2775C277.888 47.1645 278.654 50.4885 278.654 54.2443C278.654 58.2134 277.782 61.7267 276.032 64.7795L276.033 64.7805C274.322 67.8312 271.957 70.1962 268.942 71.8713L268.94 71.8723C265.926 73.5095 262.542 74.3263 258.794 74.3264C255.045 74.3264 251.661 73.5097 248.646 71.8723L248.646 71.8713C245.631 70.1964 243.248 67.8315 241.5 64.7814L241.499 64.7805C239.786 61.7276 238.933 58.2133 238.933 54.2443C238.933 50.2389 239.786 46.7241 241.499 43.7072H241.5L241.835 43.1428C243.434 40.5508 245.519 38.4983 248.089 36.9875L248.646 36.6721C251.661 34.9978 255.045 34.1623 258.794 34.1623ZM258.684 38.0969C255.769 38.0969 253.151 38.7335 250.827 40.0041L250.828 40.0051C248.687 41.1948 246.974 42.8943 245.69 45.1086L245.439 45.5578C244.133 47.99 243.475 50.8832 243.475 54.2443C243.475 57.6411 244.132 60.5514 245.438 62.9826L245.695 63.426C247.011 65.6088 248.74 67.2932 250.883 68.4836H250.882C253.206 69.7543 255.842 70.3918 258.794 70.3918C261.746 70.3918 264.363 69.7537 266.649 68.4836H266.65L267.08 68.2385C269.197 66.9823 270.868 65.2321 272.094 62.9846V62.9836L272.338 62.5226C273.519 60.1869 274.112 57.4296 274.112 54.2443C274.112 50.8104 273.419 47.8821 272.04 45.4514L272.039 45.4494C270.695 43.0155 268.845 41.1852 266.488 39.9523L266.487 39.9514C264.162 38.7163 261.562 38.0969 258.684 38.0969Z" fill="#060606" stroke="#060606" stroke-width="0.4"/>
<path d="M217.835 34.711C218.575 34.711 219.167 34.8622 219.577 35.1983C219.994 35.5407 220.188 36.0473 220.188 36.6787C220.188 37.177 220.03 37.595 219.709 37.917L219.562 38.0498C219.144 38.3836 218.559 38.5351 217.835 38.5352H205.388V71.9131C205.388 72.5605 205.223 73.107 204.88 73.5352L204.722 73.7119C204.307 74.127 203.735 74.3222 203.034 74.3223C202.334 74.3223 201.761 74.1272 201.346 73.7119L201.339 73.7041L201.333 73.6973C200.964 73.2461 200.79 72.6432 200.79 71.9131V38.5352H188.344C187.657 38.5352 187.082 38.4017 186.635 38.1172L186.625 38.1114L186.617 38.1045C186.193 37.7654 185.989 37.28 185.989 36.6787C185.989 36.0474 186.183 35.5406 186.601 35.1983C187.01 34.8621 187.604 34.711 188.344 34.711H217.835Z" fill="#060606" stroke="#060606" stroke-width="0.4"/>
<path d="M160.758 34.1623C161.464 34.1623 162.038 34.3801 162.452 34.8351L162.596 35.0099C162.907 35.4326 163.057 35.9576 163.057 36.5715V71.9172C163.057 72.531 162.907 73.0561 162.596 73.4787L162.452 73.6535C162.038 74.1086 161.464 74.3264 160.758 74.3264C160.091 74.3263 159.539 74.128 159.126 73.715L159.119 73.7082C158.709 73.2571 158.515 72.6521 158.515 71.9172V36.5715C158.515 35.8416 158.707 35.2519 159.119 34.8351L159.28 34.6769C159.671 34.3314 160.169 34.1624 160.758 34.1623Z" fill="#060606" stroke="#060606" stroke-width="0.4"/>
<path d="M131.604 34.1623C132.31 34.1624 132.871 34.3798 133.25 34.843H133.249C133.657 35.2593 133.848 35.8456 133.848 36.5715V57.9445C133.848 61.2123 133.179 64.0996 131.836 66.5998L131.835 66.6008C130.49 69.0656 128.547 70.9694 126.01 72.3127L126.011 72.3137C123.51 73.6575 120.566 74.3264 117.189 74.3264C113.887 74.3263 111 73.6767 108.536 72.3703L108.535 72.3693C106.107 71.0617 104.237 69.1737 102.93 66.7092C101.623 64.2447 100.974 61.3206 100.974 57.9445V36.5715L100.983 36.3029C101.026 35.6961 101.217 35.1995 101.578 34.8351L101.739 34.6769C102.13 34.3314 102.628 34.1624 103.217 34.1623C103.919 34.1623 104.491 34.3781 104.904 34.8283H104.905C105.322 35.2454 105.516 35.8377 105.516 36.5715V58.1105C105.516 62.0518 106.555 65.0702 108.607 67.1945L108.803 67.3898C110.841 69.3837 113.664 70.3917 117.3 70.3918C121.09 70.3918 124.016 69.3173 126.104 67.1926L126.301 66.9875C128.297 64.841 129.306 61.8903 129.306 58.1105V36.5715C129.306 35.8377 129.499 35.2454 129.916 34.8283L130.089 34.6721C130.506 34.3309 131.015 34.1623 131.604 34.1623Z" fill="#060606" stroke="#060606" stroke-width="0.4"/>
<path d="M62.126 34.1623C65.4265 34.1623 68.2934 34.7747 70.7197 36.006H70.7207C73.1839 37.2376 75.0729 39.013 76.3818 41.3303L76.626 41.7629C77.8089 43.9493 78.3974 46.4916 78.3975 49.384V71.9172C78.3974 72.6515 78.2024 73.2552 77.793 73.7062L77.7939 73.7072C77.4131 74.1304 76.8535 74.3263 76.1543 74.3264C75.4864 74.3264 74.9207 74.1282 74.4736 73.7219L74.4658 73.715L74.46 73.7082C74.0498 73.257 73.8555 72.6521 73.8555 71.9172V49.2189C73.8555 45.9093 72.9453 43.3097 71.1426 41.3976L70.7695 41.0246C68.7181 39.0813 65.846 38.0969 62.126 38.0969C58.4822 38.0969 55.6083 39.0986 53.4814 41.0812L53.4805 41.0803C51.3933 43.0603 50.3418 45.7657 50.3418 49.2189V71.9172C50.3418 72.6521 50.1474 73.257 49.7373 73.7082L49.7314 73.715C49.3162 74.1302 48.7435 74.3264 48.043 74.3264C47.3757 74.3263 46.8241 74.128 46.4111 73.715L46.4043 73.7082C45.9942 73.2571 45.7998 72.6521 45.7998 71.9172V49.384L45.8076 48.8107C45.8839 45.9656 46.5326 43.4709 47.7598 41.3322V41.3312L48.0186 40.9025C49.3459 38.7935 51.1668 37.1609 53.4766 36.006L53.9434 35.7824C56.3017 34.7005 59.0309 34.1623 62.126 34.1623Z" fill="#060606" stroke="#060606" stroke-width="0.4"/>
</svg>
