<svg width="174" height="58" viewBox="0 0 174 58" fill="none" xmlns="http://www.w3.org/2000/svg">
<rect x="1.1" y="1.1" width="171.8" height="55.8" rx="27.9" stroke="white" stroke-width="2.2"/>
<path d="M138.542 18.2546C140.569 18.2546 142.402 18.7069 144.035 19.614L144.338 19.7849C145.829 20.6624 147.01 21.8773 147.88 23.4265L148.052 23.7361C148.886 25.3017 149.301 27.1026 149.301 29.1326C149.301 31.2775 148.828 33.1798 147.88 34.8347L147.881 34.8357C146.953 36.4888 145.672 37.7714 144.037 38.6794L144.035 38.6804C142.402 39.5677 140.569 40.0095 138.542 40.0095C136.515 40.0095 134.682 39.5677 133.049 38.6804L133.047 38.6794C131.413 37.7716 130.121 36.489 129.174 34.8367L129.173 34.8357C128.244 33.1807 127.783 31.2775 127.783 29.1326C127.783 26.9681 128.245 25.0637 129.174 23.4275L129.355 23.1218C130.284 21.6169 131.516 20.4467 133.049 19.614C134.682 18.7069 136.515 18.2546 138.542 18.2546ZM138.482 20.5535C136.931 20.5535 135.541 20.891 134.308 21.5652L134.309 21.5662C133.174 22.1965 132.266 23.0968 131.585 24.2722L131.452 24.5105C130.759 25.8007 130.408 27.3396 130.408 29.1326C130.408 30.9441 130.758 32.4908 131.45 33.78L131.587 34.0154C132.286 35.1745 133.203 36.067 134.339 36.698H134.338C135.571 37.372 136.97 37.7117 138.542 37.7117C140.114 37.7117 141.503 37.3716 142.716 36.698H142.717L142.944 36.5681C144.067 35.9023 144.953 34.975 145.604 33.782V33.781L145.733 33.5359C146.36 32.297 146.676 30.8313 146.676 29.1326C146.676 27.301 146.306 25.7445 145.575 24.4558L145.574 24.4539C144.861 23.1619 143.88 22.1921 142.631 21.5388L142.63 21.5378C141.396 20.8824 140.015 20.5535 138.482 20.5535Z" fill="white" stroke="white" stroke-width="0.4"/>
<path d="M116.009 18.5493C116.416 18.5494 116.76 18.6328 117.003 18.8325C117.254 19.0385 117.365 19.3401 117.365 19.6987C117.365 20.0298 117.243 20.3073 116.993 20.5073C116.747 20.7046 116.408 20.7885 116.009 20.7886H109.416V38.6216C109.416 39.0376 109.294 39.389 109.031 39.6519C108.786 39.8966 108.453 40.0073 108.06 40.0073C107.666 40.0073 107.333 39.8966 107.088 39.6519L107.081 39.645L107.074 39.6372C106.859 39.3737 106.763 39.0275 106.763 38.6216V20.7886H100.17C99.7902 20.7885 99.4626 20.7144 99.2031 20.5493L99.1934 20.5435L99.1855 20.5366C98.932 20.3338 98.8135 20.0444 98.8135 19.6987C98.8135 19.3401 98.9249 19.0385 99.1758 18.8325C99.4192 18.6328 99.7623 18.5494 100.17 18.5493H116.009Z" fill="white" stroke="white" stroke-width="0.4"/>
<path d="M85.3555 18.2546C85.7547 18.2547 86.0905 18.3784 86.334 18.6462L86.417 18.7478C86.5977 18.9933 86.6826 19.2959 86.6826 19.6414V38.6228C86.6826 38.9682 86.5977 39.2708 86.417 39.5164L86.334 39.6179C86.0905 39.8857 85.7547 40.0095 85.3555 40.0095C85.025 40.0095 84.7371 39.9231 84.5078 39.739L84.4131 39.6541L84.4062 39.6472C84.1666 39.3836 84.0576 39.0339 84.0576 38.6228V19.6414C84.0576 19.2351 84.1642 18.8925 84.4062 18.6462L84.501 18.5535C84.7298 18.3516 85.0199 18.2546 85.3555 18.2546Z" fill="white" stroke="white" stroke-width="0.4"/>
<path d="M69.6973 18.2546C70.0957 18.2546 70.4276 18.3783 70.6533 18.6541H70.6523C70.8896 18.8998 70.9951 19.2389 70.9951 19.6414V31.1189C70.9951 32.8867 70.6331 34.4531 69.9033 35.8113V35.8123C69.1722 37.1526 68.1147 38.189 66.7363 38.9187L66.7354 38.9177C65.3767 39.6474 63.7821 40.0095 61.957 40.0095C60.1708 40.0095 58.6045 39.658 57.2656 38.948L57.2646 38.947C56.0267 38.2804 55.0554 37.3361 54.3535 36.1169L54.2168 35.8699C53.5065 34.5304 53.1553 32.9438 53.1553 31.1189V19.6414C53.1553 19.2351 53.2619 18.8925 53.5039 18.6462L53.5986 18.5535C53.8275 18.3516 54.1176 18.2546 54.4531 18.2546C54.8524 18.2547 55.1882 18.3784 55.4316 18.6462H55.4307C55.673 18.8925 55.7803 19.2349 55.7803 19.6414V31.2078C55.7803 33.3082 56.3334 34.9036 57.4141 36.0222L57.6221 36.2253C58.6869 37.2094 60.1435 37.7116 62.0156 37.7117C64.0328 37.7117 65.5776 37.1402 66.6777 36.0212L66.8818 35.8025C67.8681 34.6807 68.3701 33.1561 68.3701 31.2078V19.6414C68.3701 19.2314 68.4789 18.8861 68.7256 18.6394L68.8262 18.5486C69.0676 18.3513 69.3617 18.2547 69.6973 18.2546Z" fill="white" stroke="white" stroke-width="0.4"/>
<path d="M32.3867 18.2546C34.1702 18.2546 35.7246 18.5857 37.043 19.2546H37.0439C38.3819 19.9236 39.4098 20.8891 40.1221 22.1492L40.2559 22.3845C40.8996 23.5743 41.2178 24.9559 41.2178 26.5222V38.6228C41.2178 39.0334 41.1082 39.3817 40.8691 39.6453L40.8701 39.6462C40.6427 39.8989 40.3132 40.0094 39.9209 40.0095C39.5427 40.0095 39.2147 39.8969 38.9551 39.6609L38.9482 39.6541L38.9424 39.6472C38.7027 39.3835 38.5938 39.0339 38.5938 38.6228V26.4333C38.5938 24.6739 38.1098 23.3028 37.1611 22.2966L36.9648 22.0994C35.8851 21.0767 34.3679 20.5535 32.3867 20.5535C30.4475 20.5535 28.9288 21.0855 27.8076 22.1306C26.7089 23.1732 26.1514 24.5993 26.1514 26.4333V38.6228C26.1514 39.0338 26.0423 39.3836 25.8027 39.6472L25.7959 39.6541C25.5512 39.8988 25.2179 40.0095 24.8242 40.0095C24.4465 40.0095 24.1245 39.8967 23.8818 39.6541L23.875 39.6472C23.6354 39.3836 23.5264 39.0339 23.5264 38.6228V26.5222C23.5264 24.8527 23.8787 23.3935 24.5908 22.1521L24.5918 22.1511L24.7324 21.9177C25.4545 20.7705 26.4451 19.8822 27.7002 19.2546L27.9541 19.1335C29.2348 18.546 30.7139 18.2547 32.3867 18.2546Z" fill="white" stroke="white" stroke-width="0.4"/>
</svg>
