<svg width="132" height="45" viewBox="0 0 132 45" fill="none" xmlns="http://www.w3.org/2000/svg">
<rect x="1.1" y="1.1" width="129.8" height="42.8" rx="21.4" stroke="#060606" stroke-width="2.2"/>
<path d="M104.28 13.2495C105.871 13.2495 107.312 13.6042 108.598 14.3179L108.836 14.4526C110.009 15.1433 110.939 16.0998 111.623 17.3179L111.759 17.562C112.416 18.7948 112.741 20.2107 112.741 21.8022C112.741 23.4848 112.371 24.9815 111.624 26.2847C110.895 27.5844 109.885 28.5937 108.6 29.3081L108.598 29.3091C107.312 30.0073 105.871 30.355 104.28 30.355C102.69 30.3549 101.249 30.0073 99.9639 29.3091L99.9619 29.3081C98.6759 28.5936 97.6589 27.5841 96.9141 26.2847L96.9131 26.2827C96.1823 24.9798 95.8203 23.484 95.8203 21.8022C95.8203 20.1054 96.1822 18.6085 96.9141 17.3198V17.3188L97.0576 17.0786C97.788 15.895 98.7572 14.9733 99.9639 14.3179C101.249 13.6043 102.69 13.2496 104.28 13.2495ZM104.234 15.2251C103.043 15.2251 101.978 15.4848 101.034 16.0005L101.035 16.0015C100.226 16.4508 99.568 17.0795 99.0596 17.8931L98.8506 18.2534C98.3203 19.2403 98.0498 20.4205 98.0498 21.8022C98.0498 23.198 98.32 24.384 98.8486 25.3696L99.0625 25.7251C99.5823 26.5276 100.246 27.152 101.056 27.6021H101.057C102 28.1178 103.072 28.3784 104.28 28.3784C105.489 28.3784 106.553 28.1181 107.48 27.603L107.481 27.6021L107.824 27.3989C108.602 26.8991 109.223 26.225 109.688 25.3726L109.689 25.3716L109.788 25.1841C110.267 24.2363 110.511 23.1115 110.511 21.8022C110.511 20.3908 110.226 19.1975 109.667 18.2124L109.666 18.2095C109.12 17.2204 108.37 16.4799 107.416 15.981L107.415 15.98C106.47 15.4782 105.412 15.2251 104.234 15.2251Z" fill="#060606" stroke="#060606" stroke-width="0.5"/>
<path d="M88.2568 13.4785C88.5844 13.4785 88.8765 13.5448 89.0898 13.7197C89.3126 13.9025 89.4062 14.1678 89.4062 14.4668C89.4062 14.7146 89.3254 14.9326 89.1582 15.1006L89.082 15.1689C88.867 15.341 88.5793 15.4082 88.2568 15.4082H83.2256V29.1807C83.2255 29.4805 83.1482 29.7475 82.9775 29.9609L82.8984 30.0488C82.6859 30.2613 82.4002 30.3525 82.0762 30.3525C81.7521 30.3525 81.4664 30.2613 81.2539 30.0488L81.2451 30.04L81.2373 30.0303C81.0517 29.8035 80.9727 29.5109 80.9727 29.1807V15.4082H75.9414C75.6728 15.4082 75.429 15.3629 75.2236 15.2568L75.1387 15.208L75.127 15.2002L75.1162 15.1924C74.8927 15.0136 74.7921 14.7587 74.792 14.4668C74.792 14.1678 74.8856 13.9025 75.1084 13.7197C75.3217 13.5448 75.6138 13.4785 75.9414 13.4785H88.2568Z" fill="#060606" stroke="#060606" stroke-width="0.5"/>
<path d="M65.9238 13.2495C66.2548 13.2496 66.543 13.3534 66.7539 13.5854L66.8252 13.6724C66.9794 13.8822 67.0498 14.1378 67.0498 14.4224V29.1821C67.0498 29.4667 66.9796 29.7223 66.8252 29.9321L66.7539 30.019C66.543 30.2509 66.2547 30.3549 65.9238 30.355C65.6105 30.355 65.3339 30.2602 65.124 30.0503L65.1162 30.0425C64.91 29.8157 64.8203 29.5185 64.8203 29.1821V14.4224C64.8203 14.1291 64.8886 13.8659 65.0498 13.6606L65.124 13.5767C65.3313 13.3536 65.6072 13.2495 65.9238 13.2495Z" fill="#060606" stroke="#060606" stroke-width="0.5"/>
<path d="M55.4756 13.2495C55.7968 13.2495 56.0779 13.3481 56.2754 13.5767L56.3506 13.6606C56.5115 13.8658 56.5791 14.1293 56.5791 14.4224V23.3472C56.5791 24.7349 56.2956 25.9687 55.7197 27.0405L55.7188 27.0415C55.1412 28.1004 54.3055 28.9197 53.2178 29.4956L53.2168 29.4946C52.1442 30.0705 50.8885 30.3549 49.457 30.355C48.0556 30.355 46.8218 30.0787 45.7646 29.5181L45.7637 29.5171C44.7854 28.9904 44.0173 28.2437 43.4629 27.2808L43.3545 27.0854C42.7935 26.0276 42.5186 24.7783 42.5186 23.3472V14.4224C42.5186 14.1291 42.5869 13.8659 42.748 13.6606L42.8223 13.5767C43.0295 13.3536 43.3054 13.2495 43.6221 13.2495C43.9487 13.2496 44.2332 13.3511 44.4434 13.5767H44.4443C44.6592 13.7916 44.748 14.0874 44.748 14.4224V23.4165C44.7481 25.0332 45.1738 26.247 45.9922 27.0942C46.8101 27.9408 47.9687 28.3784 49.5029 28.3784C51.053 28.3784 52.2272 27.94 53.0605 27.0923L53.2148 26.9263C53.9631 26.0752 54.3496 24.9148 54.3496 23.4165V14.4224C54.3496 14.0875 54.4385 13.7916 54.6533 13.5767L54.7393 13.4995C54.9451 13.3314 55.1949 13.2496 55.4756 13.2495Z" fill="#060606" stroke="#060606" stroke-width="0.5"/>
<path d="M27.7354 13.2495C29.1337 13.2495 30.3575 13.5085 31.3984 14.0366L31.5938 14.1392C32.5567 14.6625 33.3056 15.3927 33.834 16.3286H33.833C34.4114 17.3103 34.6963 18.4616 34.6963 19.7729V29.1821C34.6963 29.5182 34.6062 29.8138 34.4004 30.0405L34.4014 30.0415C34.201 30.2639 33.9151 30.355 33.5928 30.355C33.279 30.3549 33.001 30.2605 32.7793 30.0591L32.7705 30.0513L32.7627 30.0425C32.5565 29.8157 32.4668 29.5185 32.4668 29.1821V19.7036C32.4668 18.3538 32.0967 17.3125 31.3789 16.5513L31.2305 16.4028C30.4132 15.6285 29.2594 15.2251 27.7354 15.2251C26.2452 15.2251 25.0887 15.6345 24.2383 16.4272C23.407 17.2167 22.9805 18.2987 22.9805 19.7036V29.1821C22.9804 29.5185 22.8908 29.8157 22.6846 30.0425L22.6768 30.0513L22.6758 30.0503C22.4633 30.2626 22.1783 30.3549 21.8545 30.355C21.5803 30.355 21.3345 30.2822 21.1367 30.1235L21.0547 30.0503L21.0469 30.0425C20.8407 29.8157 20.751 29.5185 20.751 29.1821V19.7729L20.7637 19.2886C20.8243 18.1757 21.0987 17.1861 21.5918 16.3267V16.3257L21.7031 16.1421C22.2741 15.2348 23.0578 14.5321 24.0488 14.0366L24.4531 13.8511C25.4152 13.4478 26.5111 13.2495 27.7354 13.2495Z" fill="#060606" stroke="#060606" stroke-width="0.5"/>
</svg>
