<svg width="28" height="29" viewBox="0 0 28 29" fill="none" xmlns="http://www.w3.org/2000/svg">
<path d="M10.5003 24.9815V22.644" stroke="#868686" stroke-width="1.4" stroke-linecap="round" stroke-linejoin="round"/>
<path d="M14.0013 24.9777V22.6443" stroke="#868686" stroke-width="1.4" stroke-linecap="round" stroke-linejoin="round"/>
<path d="M17.5013 24.9815V22.644" stroke="#868686" stroke-width="1.4" stroke-linecap="round" stroke-linejoin="round"/>
<path d="M21.0013 24.9777V22.6443" stroke="#868686" stroke-width="1.4" stroke-linecap="round" stroke-linejoin="round"/>
<path d="M19.8343 3.97803V6.25765" stroke="#868686" stroke-width="1.4" stroke-linecap="round" stroke-linejoin="round"/>
<path d="M16.3343 3.97803V6.31136" stroke="#868686" stroke-width="1.4" stroke-linecap="round" stroke-linejoin="round"/>
<path d="M12.8343 3.97803V6.31136" stroke="#868686" stroke-width="1.4" stroke-linecap="round" stroke-linejoin="round"/>
<path d="M17.501 17.978L24.1593 11.3197C24.3781 11.1009 24.501 10.8042 24.501 10.4948V5.14469C24.501 4.50036 23.9786 3.97803 23.3343 3.97803H4.66764C4.02331 3.97803 3.50098 4.50036 3.50098 5.14469V9.81136C3.50098 10.4557 4.02331 10.978 4.66764 10.978H24.3953" stroke="#868686" stroke-width="1.4" stroke-linecap="round" stroke-linejoin="round"/>
<path d="M7.10728 17.9778H23.3343C23.9786 17.9778 24.501 18.5001 24.501 19.1444V23.8111C24.501 24.4554 23.9786 24.9778 23.3343 24.9778H8.16764C7.52331 24.9778 7.00098 24.4554 7.00098 23.8111V18.461C7.00098 18.1516 7.12389 17.8549 7.34268 17.6361L14.001 10.9778" stroke="#868686" stroke-width="1.4" stroke-linecap="round" stroke-linejoin="round"/>
<path d="M8.7513 3.97803V10.978" stroke="#868686" stroke-width="1.4" stroke-linecap="round" stroke-linejoin="round"/>
</svg>
