<svg width="132" height="44" viewBox="0 0 132 44" fill="none" xmlns="http://www.w3.org/2000/svg">
<rect width="132" height="44" rx="22" fill="black" fill-opacity="0.24"/>
<rect x="0.9" y="0.9" width="130.2" height="42.2" rx="21.1" stroke="white" stroke-width="1.8"/>
<path d="M105.101 13.7998C106.646 13.7998 108.044 14.1446 109.291 14.8369L109.522 14.9678C110.661 15.6376 111.562 16.5652 112.226 17.7471H112.227C112.952 18.9969 113.31 20.45 113.311 22.0996C113.311 23.7348 112.951 25.188 112.227 26.4521C111.519 27.7131 110.54 28.6918 109.293 29.3848L109.291 29.3857C108.044 30.0631 106.646 30.4004 105.101 30.4004C103.556 30.4004 102.157 30.0631 100.91 29.3857L100.908 29.3848V29.3838C99.6611 28.6908 98.6747 27.7128 97.9521 26.4521L97.9512 26.4502C97.2423 25.1864 96.8906 23.734 96.8906 22.0996C96.8907 20.4508 97.2426 18.9985 97.9521 17.749V17.748L98.0908 17.5146C98.7522 16.4427 99.616 15.5932 100.68 14.9678L100.91 14.8369C102.157 14.1445 103.555 13.7998 105.101 13.7998ZM105.056 15.6396C103.886 15.6397 102.84 15.896 101.912 16.4033L101.911 16.4023C101.116 16.8445 100.469 17.4642 99.9697 18.2637L99.7646 18.6172C99.2433 19.5875 98.9786 20.7459 98.9785 22.0996C98.9785 23.4689 99.2434 24.6354 99.7646 25.6055C100.302 26.5626 101.025 27.2914 101.934 27.7969H101.935C102.862 28.304 103.916 28.5595 105.101 28.5596C106.286 28.5596 107.332 28.3044 108.244 27.7979L108.245 27.7969L108.582 27.5967C109.347 27.105 109.958 26.4422 110.415 25.6045L110.416 25.6035L110.513 25.4189C110.984 24.487 111.224 23.3825 111.224 22.0996C111.224 20.7168 110.944 19.545 110.395 18.5762L110.394 18.5742C109.857 17.602 109.119 16.8728 108.181 16.3818H108.18C107.251 15.8885 106.211 15.6396 105.056 15.6396Z" fill="white" stroke="white" stroke-width="0.4"/>
<path d="M89.0068 14.0234C89.3216 14.0234 89.595 14.0874 89.792 14.249C89.9964 14.4168 90.0839 14.6611 90.084 14.9434C90.084 15.1745 90.0096 15.3762 89.8555 15.5312L89.7842 15.5947C89.5852 15.7539 89.3161 15.8183 89.0068 15.8184H84.0547V29.2988C84.0547 29.5838 83.9808 29.834 83.8213 30.0332L83.748 30.1152C83.551 30.3122 83.2843 30.3984 82.9766 30.3984C82.6688 30.3984 82.4021 30.3122 82.2051 30.1152L82.1982 30.1084L82.1924 30.1006C82.0196 29.8894 81.9444 29.6143 81.9443 29.2988V15.8184H76.9922C76.6981 15.8184 76.4386 15.7617 76.2314 15.6299L76.2227 15.624L76.2139 15.6172C76.0082 15.4525 75.9141 15.2173 75.9141 14.9434C75.9141 14.6611 76.0025 14.4168 76.207 14.249C76.404 14.0875 76.6775 14.0234 76.9922 14.0234H89.0068Z" fill="white" stroke="white" stroke-width="0.4"/>
<path d="M65.7533 13.7998C66.0667 13.7998 66.3358 13.8979 66.5316 14.1133L66.598 14.1943C66.742 14.3902 66.8089 14.6302 66.8089 14.9004V29.2998C66.8089 29.57 66.7421 29.8099 66.598 30.0059L66.5316 30.0869C66.3358 30.3023 66.0667 30.4004 65.7533 30.4004C65.4569 30.4003 65.2 30.3109 65.0052 30.1162L64.9984 30.1094C64.8064 29.8982 64.721 29.6202 64.721 29.2998V14.9004C64.721 14.5848 64.8043 14.3117 64.9984 14.1133L65.0736 14.0381C65.2569 13.8764 65.4888 13.7999 65.7533 13.7998Z" fill="white" stroke="white" stroke-width="0.4"/>
<path d="M53.8752 13.7998C54.1878 13.7998 54.4551 13.8977 54.6379 14.1211H54.6369C54.8261 14.3189 54.9074 14.5886 54.9074 14.9004V23.6074C54.9074 24.9552 54.6314 26.1511 54.0735 27.1895V27.1904C53.5143 28.2155 52.705 29.0075 51.6516 29.5654L51.6526 29.5664C50.6133 30.1248 49.3946 30.4003 48.0031 30.4004C46.6417 30.4004 45.445 30.1318 44.4211 29.5889H44.4201C43.4731 29.0789 42.7304 28.3553 42.1936 27.4229L42.0881 27.2334C41.545 26.209 41.2776 24.9978 41.2776 23.6074V14.9004C41.2776 14.5848 41.3608 14.3117 41.5549 14.1133L41.6301 14.0381C41.8134 13.8764 42.0454 13.7999 42.3098 13.7998C42.6233 13.7998 42.8923 13.8979 43.0881 14.1133H43.0871C43.2816 14.3117 43.3654 14.5845 43.3654 14.9004V23.6748C43.3654 25.2599 43.7833 26.4569 44.592 27.2939L44.7473 27.4453C45.5443 28.1819 46.6367 28.5596 48.0481 28.5596C49.5688 28.5595 50.7268 28.1294 51.55 27.292L51.7024 27.1279C52.441 26.2877 52.8205 25.1443 52.8205 23.6748V14.9004C52.8205 14.5812 52.9049 14.3054 53.1037 14.1064L53.1838 14.0342C53.3764 13.8768 53.6103 13.7998 53.8752 13.7998Z" fill="white" stroke="white" stroke-width="0.4"/>
<path d="M25.5703 13.7998C26.9291 13.7998 28.1158 14.052 29.124 14.5635L29.4971 14.7666C30.3404 15.2638 31.0024 15.9346 31.4795 16.7783L31.582 16.959C32.0746 17.8696 32.3174 18.9255 32.3174 20.1201V29.2998C32.3174 29.6198 32.2314 29.8964 32.04 30.1074L32.041 30.1084C31.8565 30.3134 31.5917 30.4004 31.2852 30.4004C30.9881 30.4004 30.7276 30.3113 30.5205 30.123L30.5068 30.1094C30.315 29.8982 30.2305 29.6202 30.2305 29.2998V20.0527C30.2305 18.7272 29.8659 17.6998 29.1562 16.9473L29.0098 16.7998C28.2021 16.0348 27.0646 15.6397 25.5703 15.6396C24.1082 15.6396 22.9685 16.0415 22.1289 16.8242L22.1279 16.8232C21.3062 17.6033 20.8877 18.6722 20.8877 20.0527V29.2998C20.8877 29.6202 20.8023 29.8982 20.6104 30.1094L20.6045 30.1162L20.4629 29.9746L20.6035 30.1162C20.4065 30.3132 20.1398 30.4004 19.832 30.4004C19.5357 30.4003 19.2788 30.3109 19.084 30.1162L19.0771 30.1094C18.8852 29.8982 18.7998 29.6202 18.7998 29.2998V20.1201C18.7998 18.8465 19.069 17.7306 19.6143 16.7803V16.7793L19.8359 16.4287C20.3773 15.6339 21.0973 15.0114 21.9932 14.5635L22.3848 14.3838C23.3172 13.9929 24.3806 13.7998 25.5703 13.7998Z" fill="white" stroke="white" stroke-width="0.4"/>
</svg>
